<?xml version="1.0" encoding="UTF-8"?>
<svg xmlns="http://www.w3.org/2000/svg" xmlns:xlink="http://www.w3.org/1999/xlink" viewBox="17.26 15.58 75.48 62.28" width="75.48" height="62.28">
 <defs>
  <style type="text/css">
   .fil2 {fill:url(#id1)}
   .fil3 {fill:url(#id2);fill-rule:nonzero}
   .fil1 {fill:url(#id3);fill-rule:nonzero}
  </style>
  <linearGradient id="id1" gradientUnits="userSpaceOnUse" x1="72.2" y1="34.04" x2="72.2" y2="77.72">
   <stop offset="0" style="stop-opacity:1; stop-color:#4679FF"/>
   <stop offset="1" style="stop-opacity:1; stop-color:#03349B"/>
  </linearGradient>
  <linearGradient id="id2" gradientUnits="userSpaceOnUse" xlink:href="#id1" x1="72.04" y1="32.53" x2="72.04" y2="77.86"/>
  <linearGradient id="id3" gradientUnits="userSpaceOnUse" xlink:href="#id1" x1="72.04" y1="32.53" x2="72.04" y2="77.86"/>
 </defs>
 <path class="fil1" d="M48.1 55.61c4.88,0 8.83,-3.99 8.83,-8.91 0,-4.92 -3.95,-8.9 -8.83,-8.9 -4.87,0 -8.82,3.98 -8.82,8.9 0,4.92 3.95,8.91 8.82,8.91z"/>
 <path class="fil2" d="M48.1 22.07c11.36,-7.07 22.16,-8.7 27.6,-3.21 1.77,1.79 2.8,4.16 3.12,6.93 0.11,0.86 -0.6,1.57 -1.46,1.56l-1.37 -0.01c-0.81,-0.01 -1.45,-0.65 -1.58,-1.45 -0.28,-1.61 -0.89,-2.93 -1.83,-3.88 -1.63,-1.44 -3.76,-2.17 -5.93,-2.02 -5.16,0.35 -10.15,1.99 -14.53,4.78 2.31,1.68 4.52,3.49 6.63,5.42 0.52,0.48 0.64,1.27 0.45,1.96 -0.03,0.13 -0.07,0.28 -0.11,0.42 -0.31,1.33 -2.11,2.03 -3.1,1.11 -2.49,-2.29 -5.15,-4.43 -7.89,-6.35 -7.48,5.26 -13.98,11.82 -19.19,19.37 2.58,3.78 5.51,7.31 8.74,10.55 2.89,2.93 6.01,5.62 9.34,8.03 0.63,0.46 0.83,1.31 0.53,2.03 -0.56,1.35 -1.09,3.05 -1.26,4.38 -0.07,0.54 -0.34,1.06 -0.81,1.32 -4.9,2.79 -10.36,4.45 -16,4.83 -3.3,0.16 -6.52,-1.02 -8.94,-3.29 -5.44,-5.49 -3.82,-16.38 3.18,-27.85 -7,-11.46 -8.62,-22.35 -3.18,-27.84 5.44,-5.49 16.23,-3.85 27.59,3.21zm-21.72 28.7c-5.25,9.29 -6.11,17.24 -2.75,20.63 3.35,3.39 11.23,2.52 20.44,-2.77 -3.4,-2.48 -6.59,-5.23 -9.54,-8.23 -2.97,-2.98 -5.7,-6.2 -8.15,-9.63zm3.17 -30.78c-2.16,-0.15 -4.29,0.57 -5.92,2.02 -3.36,3.39 -2.5,11.33 2.75,20.63 4.93,-6.86 10.9,-12.89 17.7,-17.86 -4.37,-2.79 -9.37,-4.44 -14.53,-4.79z"/>
 <path class="fil3" d="M92.1 69.86l-11.79 -22 0 -13.11c0,-1.23 -1.02,-2.21 -2.24,-2.21l-12.03 0c-1.22,0 -2.23,0.98 -2.23,2.21l0 13.11 -11.79 22c-0.9,1.68 -0.86,3.71 0.11,5.35 0.97,1.64 2.72,2.65 4.61,2.65l30.63 0c1.88,0 3.64,-1.01 4.61,-2.65 0.97,-1.64 1.02,-3.67 0.12,-5.35zm-18.1 -9.2c1.06,0 1.91,0.86 1.91,1.92 0,1.07 -0.85,1.93 -1.91,1.93 -1.05,0 -1.91,-0.86 -1.91,-1.93 0,-1.06 0.86,-1.92 1.91,-1.92zm-5.37 -11.6c1.05,0 1.91,0.86 1.91,1.93 0,1.06 -0.86,1.93 -1.91,1.93 -1.06,0 -1.91,-0.87 -1.91,-1.93 0,-1.07 0.85,-1.93 1.91,-1.93zm0 6.73c1.71,0 3.1,1.4 3.1,3.13 0,1.72 -1.39,3.12 -3.1,3.12 -1.71,0 -3.1,-1.4 -3.1,-3.12 0,-1.73 1.39,-3.13 3.1,-3.13zm17.79 16.04c-0.4,0.68 -1.13,1.08 -1.91,1.08l-24.91 0c-0.79,0 -1.51,-0.4 -1.91,-1.08 -0.4,-0.69 -0.41,-1.52 -0.03,-2.21l3 -5.44c0.42,-0.77 1.27,-1.22 2.14,-1.13 3.98,0.38 8.45,3.81 12.44,3.66 2.14,-0.08 4.13,-0.87 6.02,-1.92 1.07,-0.6 2.41,-0.21 3,0.87l2.19 3.95c0.38,0.7 0.37,1.53 -0.03,2.22z"/>
</svg>
